<svg height="508pt" viewBox="0 -16 508.3338 508" width="508pt" xmlns="http://www.w3.org/2000/svg"><path d="m286.074219 185.382812c-.503907-.003906-1.003907-.046874-1.5-.132812-2.269531-.394531-4.289063-1.675781-5.613281-3.5625-1.320313-1.882812-1.839844-4.214844-1.445313-6.484375 2.113281-8.53125 6.996094-16.125 13.886719-21.582031 3.558594-3.210938 9.046875-2.929688 12.257812.628906 3.210938 3.558594 2.929688 9.046875-.628906 12.257812-3.882812 3-6.816406 7.058594-8.445312 11.6875-.722657 4.140626-4.308594 7.167969-8.511719 7.1875zm0 0" fill="#f29c1f"/><path d="m357.945312 179.914062c-2.730468 0-5.304687-1.285156-6.941406-3.46875-5.863281-6.265624-13.746094-10.257812-22.261718-11.285156-3.105469-.425781-5.738282-2.496094-6.886719-5.414062-1.148438-2.917969-.636719-6.230469 1.34375-8.660156 1.980469-2.433594 5.117187-3.605469 8.207031-3.070313 12.960938 1.710937 24.847656 8.105469 33.421875 17.980469 1.96875 2.628906 2.289063 6.148437.816406 9.085937-1.46875 2.941407-4.472656 4.796875-7.761719 4.796875zm0 0" fill="#f29c1f"/><path d="m372.464844 155.886719c-1.382813-.003907-2.746094-.335938-3.976563-.964844-8.753906-3.980469-18.226562-6.132813-27.839843-6.335937h-.058594c-4.792969.015624-8.691406-3.859376-8.703125-8.652344-.015625-4.792969 3.859375-8.6875 8.648437-8.703125 12.441406.027343 24.71875 2.847656 35.917969 8.261719 3.566406 1.835937 5.410156 5.875 4.460937 9.769531-.949218 3.894531-4.441406 6.632812-8.449218 6.625zm0 0" fill="#f29c1f"/><path d="m340.832031 134.007812c-4.171875.003907-7.757812-2.960937-8.535156-7.0625-.777344-4.097656 1.472656-8.171874 5.359375-9.695312 13.625-3.421875 27.777344-4.203125 41.695312-2.296875 4.683594.640625 7.992188 4.914063 7.441407 9.605469-.550781 4.695312-4.757813 8.085937-9.460938 7.628906-11.09375-1.59375-22.378906-1.179688-33.324219 1.222656-1.011718.394532-2.089843.597656-3.175781.597656zm0 0" fill="#f29c1f"/><path d="m330.226562 126.355469c-3.242187-.003907-6.214843-1.820313-7.699218-4.703125-1.488282-2.882813-1.242188-6.355469.636718-9 7.519532-9.320313 18.242188-15.507813 30.078126-17.355469 3.066406-.464844 6.148437.738281 8.082031 3.164063 1.9375 2.421874 2.433593 5.691406 1.300781 8.582031-1.128906 2.886719-3.714844 4.953125-6.78125 5.417969-7.167969 1.167968-13.710938 4.785156-18.507812 10.238281-1.636719 2.300781-4.285157 3.664062-7.109376 3.65625zm0 0" fill="#f29c1f"/><path d="m330.496094 152.5625c-5.269532 4.464844-11.609375 7.488281-18.398438 8.765625-3.710937.792969-7.542968.851563-11.28125.171875-1.304687-.296875-2.582031-.703125-3.816406-1.214844-2.34375-1.128906-4.6875-2.777344-4.945312-4.945312-.175782-1.390625.867187-2.605469 1.039062-3.992188.089844-1.546875-.179688-3.089844-.78125-4.511718-1.113281-2.835938-2.476562-5.566407-4.078125-8.160157-3.519531-6.160156-7.492187-12.046875-11.886719-17.613281 4.535156-3.757812-4.503906-19.144531-1.511718-23.257812 7.316406-10.042969 23.03125-9.460938 22.5625-19.613282 3.382812 6.421875 6.25 12.0625 8.589843 16.75 3.199219 5.714844 7.613281 10.664063 12.933594 14.492188 3.597656 2.960937 7.363281 5.714844 11.28125 8.242187 1.734375 1.042969 3.554687 2.082031 5.378906 3.039063 2.375 1.128906 4.296875 3.023437 5.46875 5.378906 4.457031 9.460938-3.613281 20.566406-10.554687 26.46875zm0 0" fill="#802f34"/><path d="m109.640625 18.3125v13.105469c-4.394531.703125-8.511719 2.613281-11.886719 5.519531-11.480468 9.257812-25.480468 14.851562-40.179687 16.054688-23.777344 0-33.148438-29.074219-47.816407-34.019532 11.371094 1.648438 42.4375 4.6875 56.496094-9.371094 17.355469-17.320312 43.386719-8.644531 43.386719 8.710938zm0 0" fill="#c03a2b"/><path d="m272.007812 39.402344c-7.96875-2.847656-20.140624 9.136718-31.789062 7.417968-7.90625-1.164062-14.585938-16.269531-23.316406-17.050781l20.21875-22.128906c1.9375-2.328125 4.945312-3.480469 7.941406-3.039063 2.996094.445313 5.546875 2.417969 6.726562 5.207032zm0 0" fill="#802f34"/><path d="m199.460938 28.464844c-10.085938-.632813-17.28125 8.132812-26.859376 7.871094-10.042968-.277344-22.414062-9.542969-30.765624-9.605469l23.171874-22.214844c1.511719-2.28125 4.011719-3.71875 6.746094-3.871094 2.734375-.152343 5.378906.992188 7.136719 3.089844zm0 0" fill="#802f34"/><path d="m46.726562 144.230469c-8.597656 3.203125 6.152344 26.703125 0 31.328125-7.011718 5.265625-34.546874-8.089844-37.921874 0v-52.15625c0-3.632813 2.261718-6.882813 5.671874-8.140625 3.40625-1.257813 7.238282-.261719 9.601563 2.5zm0 0" fill="#802f34"/><path d="m192.691406 107.4375c-9.164062 2.984375-6.273437 24.210938-15.03125 26.570312-10.058594 2.714844-31.699218-13.519531-41.117187-11.386718l14.667969-49.117188c.980468-3.167968 3.667968-5.507812 6.941406-6.042968 3.273437-.53125 6.570312.832031 8.503906 3.527343zm0 0" fill="#802f34"/><path d="m117.800781 126.703125c-9.164062 1.90625-4.53125 33.503906-12.820312 35.273437-9.398438 2.003907-31.535157-25.808593-39.597657-23.648437l9.027344-45.382813c.683594-3.347656 3.265625-5.984374 6.601563-6.734374 3.332031-.75 6.796875.527343 8.84375 3.261718zm0 0" fill="#802f34"/><path d="m297.433594 78.191406c.242187 16.84375-7.601563 32.78125-21.085938 42.871094-6.382812 5.265625-13.445312 9.644531-21.003906 13.015625-39.136719 18.050781-80.617188 41.304687-110.46875 55.019531-3.296875-4.601562-1.734375 21.363282-5.207031 26.222656l-26.902344 35.25c-2.167969-.347656-17.355469-4.988281-19.523437-5.421874l-27.859376-1.988282c-2.601562-3.90625-22.5625-6.683594-26.597656-4.339844l-17.917968-28.03125c-11.542969-7.546874-17.441407-16.574218-14.667969-27.59375.671875-2.609374 1.542969-5.160156 2.605469-7.636718 6.335937-15.1875 19.523437-24.472656 37.921874-31.328125 5.726563-2.167969 11.890626-4.078125 18.65625-5.902344 15.1875-4.078125 32.890626-7.546875 52.417969-11.625 6.074219-1.304687 12.320313-2.605469 18.742188-4.082031 17.617187-3.992188 36.449219-8.761719 56.148437-15.183594 21.078125-6.710938 41.613282-15.007812 61.4375-24.820312.433594-.171876.78125-.433594 1.214844-.605469 25.429688-12.671875 34.539062-22.476563 32.976562-30.027344 5.566407 7.640625 8.738282 16.761719 9.113282 26.207031zm0 0" fill="#c03a2b"/><path d="m92.027344 233.441406c-3.039063-.523437-40.789063 5.988282-43.746094 5.378906-25.59375-5.121093-13.355469-18.917968-27.414062-28.03125l32.890624-31.5c3.992188-2.390624 9.164063-1.203124 11.714844 2.691407zm0 0" fill="#802f34"/><path d="m208.398438 437.980469c-.882813.007812-1.761719-.125-2.605469-.390625-2.199219-.679688-4.039063-2.207032-5.113281-4.242188-1.074219-2.035156-1.292969-4.414062-.613282-6.613281 3.472656-11.28125 15.222656-18.894531 33.964844-22.128906 4.722656-.816407 9.214844 2.351562 10.027344 7.074219.816406 4.726562-2.351563 9.214843-7.074219 10.027343-11.203125 1.929688-19.007813 5.824219-20.34375 10.15625-1.117187 3.617188-4.453125 6.097657-8.242187 6.117188zm0 0" fill="#f29c1f"/><path d="m293.207031 475.730469c-4.535156.011719-8.320312-3.46875-8.675781-7.992188-1.992188-11.429687-8.003906-21.769531-16.949219-29.152343-2.324219-2.050782-3.378906-5.183594-2.765625-8.222657.613282-3.039062 2.800782-5.523437 5.738282-6.511719 2.941406-.988281 6.183593-.332031 8.507812 1.71875 12.332031 10.347657 20.445312 24.859376 22.804688 40.785157.183593 2.296875-.550782 4.570312-2.042969 6.324219-1.492188 1.75-3.621094 2.839843-5.914063 3.023437-.230468.015625-.464844.027344-.703125.027344zm0 0" fill="#f29c1f"/><path d="m325.410156 459.8125c-3.097656 0-5.964844-1.652344-7.515625-4.335938-6.800781-10.714843-15.808593-19.855468-26.421875-26.816406-4.054687-2.558594-5.269531-7.917968-2.710937-11.972656 2.554687-4.054688 7.914062-5.269531 11.96875-2.710938 13.003906 8.441407 23.992187 19.636719 32.1875 32.792969 1.550781 2.683594 1.550781 5.992188 0 8.675781-1.546875 2.683594-4.40625 4.339844-7.507813 4.34375zm0 0" fill="#f29c1f"/><path d="m304.375 397.367188c4.859375 9.632812-.085938 17.789062-8.242188 23.949218h-.085937c-6.933594 4.820313-14.617187 8.457032-22.738281 10.761719-3.222656.953125-6.539063 1.535156-9.894532 1.738281-7.375-.089844-21.867187-11.542968-27.855468-20.65625-3.125-4.773437-3.902344-8.851562-.433594-10.414062 10.328125-4.859375 13.363281-9.890625-.085938-19.957032-7.117187-5.382812-32.542968-32.890624-34.105468-53.195312 27.769531 3.035156 66.613281-13.445312 86.484375-12.402344-11.714844 5.292969 24.941406 22.277344 16.4375 23.058594-30.375 2.949219-2.847657-9.546875 26.902343 1.074219 59.878907 21.460937 10.039063 34.210937-19.960937 43.667969-14.273437 4.425781-27.769531 12.460937-6.421875 12.375zm0 0" fill="#802f34"/><path d="m160.78125 437.980469c-3.804688-.003907-7.164062-2.484375-8.289062-6.117188-1.34375-4.339843-9.136719-8.226562-20.347657-10.15625-3.054687-.523437-5.597656-2.640625-6.667969-5.550781-1.074218-2.910156-.511718-6.171875 1.472657-8.554688 1.984375-2.382812 5.089843-3.523437 8.144531-2.996093 18.753906 3.226562 30.496094 10.882812 33.976562 22.128906.679688 2.199219.457032 4.578125-.617187 6.613281s-2.914063 3.5625-5.113281 4.242188c-.828125.261718-1.691406.390625-2.558594.390625zm0 0" fill="#f29c1f"/><path d="m75.964844 475.730469h-.695313c-2.296875-.183594-4.425781-1.269531-5.921875-3.023438-1.492187-1.753906-2.230468-4.027343-2.046875-6.324219 2.367188-15.925781 10.480469-30.433593 22.808594-40.785156 2.3125-2.140625 5.601563-2.859375 8.59375-1.875 2.996094.980469 5.222656 3.503906 5.816406 6.597656.597657 3.09375-.527343 6.269532-2.9375 8.292969-8.90625 7.40625-14.917969 17.714844-16.976562 29.113281-.351563 4.515626-4.117188 8-8.640625 8.003907zm0 0" fill="#f29c1f"/><path d="m43.75 459.8125c-3.097656-.003906-5.957031-1.660156-7.5-4.34375-1.546875-2.683594-1.546875-5.988281.003906-8.671875 8.207032-13.148437 19.195313-24.339844 32.195313-32.785156 4.046875-2.472657 9.335937-1.234375 11.863281 2.78125 2.53125 4.015625 1.367188 9.316406-2.613281 11.902343-10.636719 6.929688-19.652344 16.078126-26.425781 26.8125-1.558594 2.675782-4.425782 4.316407-7.523438 4.304688zm0 0" fill="#f29c1f"/><path d="m21.179688 438.414062c-3.671876.007813-6.949219-2.296874-8.1875-5.753906-1.238282-3.457031-.164063-7.316406 2.675781-9.640625 2.761719-2.265625 27.519531-22.199219 45.429687-25.730469 3.0625-.648437 6.234375.402344 8.304688 2.746094 2.070312 2.347656 2.71875 5.628906 1.695312 8.585938-1.027344 2.957031-3.5625 5.132812-6.640625 5.695312-11.621093 2.289063-31.242187 16.746094-37.785156 22.128906-1.546875 1.269532-3.488281 1.964844-5.492187 1.96875zm0 0" fill="#f29c1f"/><path d="m33.277344 400.855469c-4.101563.007812-7.644532-2.851563-8.503906-6.859375-.859376-4.007813 1.203124-8.070313 4.945312-9.742188 13.519531-5.847656 28.707031-6.558594 42.710938-1.996094 3.160156 1.042969 5.445312 3.796876 5.882812 7.09375.441406 3.296876-1.042969 6.554688-3.816406 8.390626-2.453125 1.585937-5.53125 1.867187-8.234375.753906-9.695313-2.9375-20.113281-2.371094-29.4375 1.597656-1.113281.503906-2.324219.761719-3.546875.761719zm0 0" fill="#f29c1f"/><path d="m133.59375 413.160156c-5.988281 9.113282-20.480469 20.566406-27.855469 20.65625-3.355469-.203125-6.671875-.785156-9.894531-1.738281-8.121094-2.304687-15.804688-5.941406-22.734375-10.761719-10.066406-7.546875-15.363281-18.136718-3.386719-30.804687l1.824219-1.824219c9.253906-2.679688 17.792969-7.394531 24.992187-13.796875-18.113281-19.277344-28.089843-44.796875-27.855468-71.246094 7.027344 2.691407 23.429687-13.882812 31.585937-11.671875 10.601563 3.984375 21.449219 7.273438 32.472657 9.851563 2.171874.433593 6.839843 19.523437 9.007812 19.871093 1.128906 21.867188 1.128906 54.496094-7.636719 61.09375-13.449219 10.066407-10.414062 15.097657-.085937 19.957032 3.472656 1.5625 2.691406 5.640625-.433594 10.414062zm0 0" fill="#802f34"/><path d="m175.160156 243.160156c-11.84375-.867187-20.324218 18.222656-32.890625 16.851563-13.300781-1.429688-30.710937-23.300781-43.648437-25.441407l32.367187-45.300781c1.585938-2.25 4.148438-3.601562 6.898438-3.636719 2.75-.035156 5.351562 1.253907 6.988281 3.464844.328125.253906.597656.578125.78125.953125zm0 0" fill="#802f34"/><path d="m397.757812 338.617188c-4.078124.003906-7.613281-2.835938-8.484374-6.820313-.875-3.988281 1.148437-8.042969 4.859374-9.746094 15.621094-7.183593 50.332032-18.023437 106.886719-10.074219 4.675781.742188 7.890625 5.097657 7.226563 9.785157-.660156 4.6875-4.960938 7.976562-9.65625 7.398437-52.164063-7.316406-83.308594 2.28125-97.195313 8.675782-1.140625.523437-2.378906.789062-3.636719.78125zm0 0" fill="#e64c3c"/><path d="m364.601562 256.175781c0 9.585938-7.769531 17.355469-17.355468 17.355469-9.585938 0-17.355469-7.769531-17.355469-17.355469 0-9.585937 7.769531-17.355469 17.355469-17.355469 9.585937 0 17.355468 7.769532 17.355468 17.355469zm0 0" fill="#f29c1f"/><path d="m274.523438 335.40625c-19.871094-1.042969-45.820313-2.777344-73.589844-5.8125-4.683594-.523438-9.457032-1.042969-14.316406-1.5625l-8.59375-1.042969c-3.035157-.347656-6.160157-.78125-9.199219-1.214843-8.414063-1.039063-16.832031-2.34375-25.078125-3.730469-.695313-.085938-1.300782-.261719-1.996094-.347657-2.167969-.347656-4.425781-.695312-6.59375-1.128906-3.125-.519531-6.335938-1.128906-9.371094-1.734375-8.941406-1.734375-17.617187-3.558593-25.777344-5.640625-2.863281-.695312-5.640624-1.390625-8.414062-2.171875-3.300781-.867187-6.421875-1.820312-9.546875-2.863281-4.6875-1.386719-9.113281-2.863281-13.363281-4.511719-1.648438-.605469-3.300782-1.214843-4.859375-1.820312-2.777344-1.128907-5.382813-2.257813-7.898438-3.472657-1.648437-.695312-3.210937-1.476562-4.6875-2.257812l-5.207031-2.863281c-3.121094-1.90625-6.160156-3.816407-9.109375-5.988281-2.378906-1.667969-4.667969-3.464844-6.855469-5.378907-3.863281-3.300781-7.460937-6.898437-10.761718-10.761719-11.679688-13.230468-18.425782-30.09375-19.089844-47.726562-1.066406-16.652344 1.878906-33.320312 8.589844-48.597656v.78125c-1.0625 2.476562-1.933594 5.027344-2.605469 7.636718-2.773438 11.019532 3.125 20.046876 14.667969 27.59375 19.34375 10.535157 40.367187 17.640626 62.132812 21.003907 2.953125.605469 5.988281 1.125 9.027344 1.648437 2.167968.433594 4.425781.78125 6.59375 1.128906 25.167968 4.164063 52.15625 6.855469 76.539062 8.589844 12.324219.867188 24.039063 1.5625 34.453125 2.082032h.085938c12.324219 14.578124 78.144531 11.464843 101.054687 9.902343 48.421875-3.210937 22.476563 45.074219 0 33.84375-22.476562-11.230469-25.46875 32.628907 25.558594 8.765625 36.707031-17.148437-20.308594 35.074219-61.789062 37.652344zm0 0" fill="#e64c3c"/><path d="m255.34375 82.011719c-.433594.171875-.78125.433593-1.214844.605469-29.242187-28.984376-135.722656-43.128907-156.375-45.644532 4.183594-3.054687 8.15625-6.390625 11.886719-9.980468 0 0 9.113281-.261719 23.171875-.261719h9.023438c16.316406.085937 36.96875.433593 57.625 1.734375l7.636718.523437c.777344.085938 1.648438.085938 2.429688.171875 2.429687.175782 4.945312.347656 7.375.609375 18.675781 1.089844 37.164062 4.320313 55.105468 9.632813 9.285157 3.296875 15.273438 7.375 16.3125 12.582031 1.5625 7.550781-7.546874 17.355469-32.976562 30.027344zm0 0" fill="#e64c3c"/><path d="m9.585938 19.007812c-1.316407-.449218-2.691407-.683593-4.078126-.695312 0 0 1.5625.347656 4.078126.695312" fill="#c03a2b"/><path d="m501.800781 248.019531c-10.328125-24.386719-22.21875-25.511719-37.925781-16.226562-13.800781 8.078125-29.566406 12.191406-45.558594 11.886719 0 0 16.230469-51.71875-42.171875-38.703126-58.40625 13.015626-64.132812-12.234374-97.800781 14.320313-33.671875 26.554687-89.472656-7.984375-89.472656-7.984375 5.242187 12.25 12.226562 23.679688 20.742187 33.929688h.085938c12.3125 16.882812 32.042969 26.746093 52.9375 26.46875 48.421875-3.210938-26.382813 39.050781-48.859375 27.855468-22.476563-11.195312 31.847656 43.042969 82.875 19.179688 36.707031-17.183594 8.070312 2.949218-22.128906 16.660156-10.128907 5.039062-20.949219 8.546875-32.109376 10.414062-30.371093 2.949219 61.441407 26.46875 87.820313 9.113282 26.382813-17.359375-17.703125 25.597656-47.726563 35.058594-14.230468 4.425781.519532 7.460937 21.867188 7.375 5.121094 0 10.675781-.171876 16.316406-.609376h.171875c20.21875-1.386718 41.222657-5.378906 48.769531-12.929687 18.484376-18.484375-16.226562 26.730469-34.710937 33.238281-18.484375 6.507813 58.578125 2.515625 72.027344-14.058594 13.449219-16.574218-11.28125 29.246094-20.652344 35.40625 0 0 119.320313 2.691407 80.269531-93.289062 0 0-8.15625 26.554688-38.53125 6.507812-10.550781-6.570312-20.664062-13.820312-30.285156-21.695312-14.230469-12.320312-21.605469-25.164062-13.101562-41.21875 13.621093-25.511719 8.15625 9.199219 45.039062.519531 36.878906-8.675781 42.347656-4.335937 50.417969-1.039062 8.070312 3.296875 32.019531-15.707031 21.695312-40.179688zm0 0" fill="#c03a2b"/><g fill="#f29c1f"><path d="m186.617188 328.03125-8.59375-1.042969c-3.035157-.347656-6.160157-.78125-9.199219-1.214843-2.34375-11.484376-3.621094-23.164063-3.816407-34.886719 0-4.789063 3.886719-8.675781 8.679688-8.675781 4.789062 0 8.675781 3.886718 8.675781 8.675781.203125 11.449219 1.570313 22.847656 4.078125 34.019531.273438 1.019531.332032 2.082031.175782 3.125zm0 0"/><path d="m143.746094 322.042969c-.695313-.085938-1.300782-.261719-1.996094-.347657-2.167969-.347656-4.425781-.695312-6.59375-1.128906-3.125-.519531-6.335938-1.128906-9.371094-1.734375-2.582031-12.042969-3.976562-24.308593-4.167968-36.621093 0-4.792969 3.886718-8.679688 8.679687-8.679688s8.675781 3.886719 8.675781 8.679688c.207032 12.195312 1.75 24.328124 4.601563 36.1875.3125 1.1875.375 2.429687.171875 3.644531zm0 0"/><path d="m100.007812 313.191406c-2.863281-.695312-5.640624-1.390625-8.414062-2.171875-3.300781-.867187-6.421875-1.820312-9.546875-2.863281-2.351563-11.394531-3.628906-22.988281-3.820313-34.625 0-4.792969 3.886719-8.675781 8.679688-8.675781s8.675781 3.882812 8.675781 8.675781c.203125 11.898438 1.6875 23.742188 4.425781 35.320312.347657 1.425782.347657 2.914063 0 4.339844zm0 0"/><path d="m63.824219 301.824219c-2.777344-1.128907-5.382813-2.257813-7.898438-3.472657-1.648437-.695312-3.210937-1.476562-4.6875-2.257812l-5.207031-2.863281c-1.558594-9.378907-2.402344-18.867188-2.515625-28.375 0-4.792969 3.886719-8.679688 8.679687-8.679688 4.792969 0 8.675782 3.886719 8.675782 8.679688.203125 10.644531 1.394531 21.25 3.558594 31.671875.375 1.785156.160156 3.644531-.605469 5.296875zm0 0"/><path d="m38.570312 279.953125c.585938 2.554687-.019531 5.238281-1.648437 7.289063-2.378906-1.667969-4.667969-3.464844-6.855469-5.378907-3.863281-3.300781-7.460937-6.898437-10.761718-10.761719-1.070313-7.824218-1.679688-15.707031-1.824219-23.601562 0-4.792969 3.886719-8.679688 8.679687-8.679688 4.792969 0 8.679688 3.886719 8.679688 8.679688.199218 10.910156 1.449218 21.78125 3.730468 32.453125zm0 0"/><path d="m351.84375 271.371094c-.695312-.226563-1.300781-.449219-1.910156-.675782-11.71875-2.941406-19.71875-13.765624-19.089844-25.835937.324219-2.070313 2.15625-3.566406 4.253906-3.46875 8.855469-.539063 17.699219 1.207031 25.683594 5.074219 5.085938 2.246094 9.167969 6.285156 11.457031 11.351562 0 0 6.679688 22.660156-20.394531 13.554688zm0 0"/></g><path d="m351.84375 271.371094c-.695312-.226563-1.300781-.449219-1.910156-.675782-3.125-2.449218-4.976563-6.183593-5.03125-10.152343.636718-8.199219 7.664062-14.414063 15.878906-14.042969 5.085938 2.242188 9.167969 6.285156 11.457031 11.351562 0 0 6.679688 22.625-20.394531 13.519532zm0 0" fill="#2c2f38"/><path d="m374.121094 260.011719c0-4.792969-3.886719-8.675781-8.679688-8.675781-4.792968 0-8.675781 3.882812-8.675781 8.675781s3.882813 8.679687 8.675781 8.679687c4.792969 0 8.679688-3.886718 8.679688-8.679687zm0 0" fill="#ecf0f1"/></svg>